<svg xmlns="http://www.w3.org/2000/svg" viewBox="1746 -474 288 378"><path d="m1890-450-30 30-30 30 30 30 30 30 30-30 30-30-30-30Z" fill="#fff" fill-rule="evenodd"/><path d="m1890-450-30 30-30 30 30 30 30 30 30-30 30-30-30-30Z" fill="none" stroke="#000" stroke-width="4" stroke-linejoin="round"/><path d="m1770-270 30-30 30-30 30 30 30 30 30-30 30-30 30 30 30 30-30 30-30 30-30 30-30 30-30-30-30-30-30-30Z" fill="#fff" fill-rule="evenodd"/><path d="m1770-270 30-30 30-30 30 30 30 30 30-30 30-30 30 30 30 30-30 30-30 30-30 30-30 30-30-30-30-30-30-30Z" fill="none" stroke="#111" stroke-width="4" stroke-linejoin="round"/><path d="M1830-390v30l30 30 30 30 30-30 30-30v-30l-30 30-30 30-30-30Z" fill-rule="evenodd"/><path d="M1830-390v30l30 30 30 30 30-30 30-30v-30l-30 30-30 30-30-30Z" fill="none" stroke="#000" stroke-width="4" stroke-linejoin="round"/><path d="M1770-270v30l30 30 30 30 30 30 30 30 30-30 30-30 30-30 30-30v-30l-30 30-30 30-30 30-30 30-30-30-30-30-30-30Z" fill-rule="evenodd"/><path d="M1770-270v30l30 30 30 30 30 30 30 30 30-30 30-30 30-30 30-30v-30l-30 30-30 30-30 30-30 30-30-30-30-30-30-30Z" fill="none" stroke="#000" stroke-width="4" stroke-linejoin="round"/><path d="m1950-210-30-30-30-30-30 30-30 30" fill="none" stroke="#000" stroke-width="4" stroke-linejoin="round" stroke-linecap="round"/></svg>